<svg xmlns="http://www.w3.org/2000/svg" xmlns:xlink="http://www.w3.org/1999/xlink" version="1.1" id="Layer_1" x="0px" y="0px" width="50px" height="50px" viewBox="0 0 44 44" enable-background="new 0 0 44 44" xml:space="preserve">
<g>
	<g>
		<path fill="#ffffff" d="M22,0c12.151,0,22,9.851,22,22s-9.849,22-22,22C9.85,44,0,34.149,0,22S9.85,0,22,0 M22,1    C10.421,1,1,10.421,1,22s9.421,21,21,21s21-9.421,21-21S33.579,1,22,1L22,1z"/>
	</g>
    <path fill-rule="evenodd" clip-rule="evenodd" fill="#ffffff" d="M25.566,29.23c-1.078,0.257-2.669,1.473-1.853,2.442   c0.826,0.988,3.125-0.567,3.313-0.685c2.786-1.695,5.032-4.776,4.973-8.891c-0.043-2.908-1.148-5.121-2.73-6.84   c-1.808-1.967-4.577-3.505-7.993-3.225c-4.601,0.376-8.969,3.553-9.26,8.306c-0.152,2.482,0.864,4.554,1.755,5.569   c1.163,1.332,3.478,2.822,6.531,2.442c2.559-0.317,4.849-2.655,5.456-4.788c0.818-2.87-1.099-6.043-3.506-6.839   c-2.789-0.921-6.026,1.079-6.436,3.321c-0.435,2.379,1.249,4.316,2.438,4.69c1.981,0.625,4.076-0.849,4.191-2.345   c0.143-1.83-1.711-3.078-2.729-1.759c0.044,0.815,0.839,1.356,0.487,2.247c-2.261,1.375-3.715-1.544-2.827-3.518   c0.733-1.623,3.59-2.151,5.362-1.074c1.101,0.668,1.999,2.182,1.95,4.006c-0.079,2.987-2.344,4.719-5.168,4.787   c-3.912,0.097-7.417-3.979-5.847-8.695c0.819-2.465,3.48-4.521,6.335-4.593c2.736-0.071,4.405,0.949,5.749,2.442   c1.016,1.124,1.688,2.6,1.756,4.593c0.623,0.939,1.693,1.43,1.95,2.735c-0.283,0.27-0.821,0.286-1.268,0.391   c-0.243,0.422,0.538,0.539,0.391,1.173c-0.457,0.491-0.317,0.98-0.684,1.563c0.164,0.62,0.346,1.582,0,2.149   C27.306,29.232,26.397,29.031,25.566,29.23z"/>
</g>
</svg>
